<svg width="474" height="476" viewBox="0 0 474 476" fill="none" xmlns="http://www.w3.org/2000/svg">
<rect width="474" height="476" fill="#E5E5E5"/>
<path d="M165.274 476C102.945 476 47.8531 464.738 0 442.215V354.738C50.2659 381.283 105.357 394.555 165.274 394.555C191.01 394.555 209.91 389.729 221.974 380.076C234.44 370.423 240.673 357.754 240.673 342.068C240.673 326.785 235.043 315.322 223.784 307.681C212.926 300.039 194.63 292.598 168.893 285.359L127.876 273.896C104.151 267.059 83.4414 259.216 65.7478 250.368C48.4563 241.117 33.7787 227.643 21.7149 209.947C9.65105 192.25 3.61914 169.325 3.61914 141.171C3.61914 94.9184 17.4925 59.9273 45.2393 36.1977C73.3882 12.0659 112.797 0 163.465 0C193.624 0 220.165 2.81538 243.086 8.44613C266.409 13.6747 289.934 21.9197 313.659 33.1812V117.643C269.023 93.5108 218.958 81.4449 163.465 81.4449C140.141 81.4449 123.453 85.869 113.4 94.7174C103.749 103.566 98.9233 116.235 98.9233 132.725C99.3254 148.411 104.151 159.873 113.4 167.113C123.051 173.95 140.744 180.989 166.481 188.228L208.101 199.691C233.435 206.528 255.15 214.773 273.245 224.426C291.341 234.079 306.22 248.155 317.882 266.657C329.945 284.755 335.977 308.485 335.977 337.845C335.575 380.88 320.294 414.665 290.135 439.199C259.975 463.733 218.355 476 165.274 476Z" fill="black"/>
<path d="M414.349 470.454C397.605 470.454 383.478 464.872 371.966 453.707C360.455 442.543 354.699 428.412 354.699 411.317C354.699 393.872 360.28 379.742 371.443 368.926C382.955 358.11 397.257 352.702 414.349 352.702C431.791 352.702 446.093 358.11 457.256 368.926C468.419 379.742 474 393.872 474 411.317C474 428.412 468.244 442.543 456.733 453.707C445.57 464.872 431.442 470.454 414.349 470.454Z" fill="black"/>
</svg>
